<svg width="33" height="32" viewBox="0 0 33 32" fill="none" xmlns="http://www.w3.org/2000/svg">
<path d="M7.16429 32H0.528571V10.6357H7.16429V32ZM3.84286 7.72143C1.72143 7.72143 0 5.96429 0 3.84286C0 1.72143 1.72143 0 3.84286 0C5.96429 0 7.68571 1.72143 7.68571 3.84286C7.68571 5.96429 5.96429 7.72143 3.84286 7.72143ZM32 32H25.3786V21.6C25.3786 19.1214 25.3286 15.9429 21.9286 15.9429C18.4786 15.9429 17.95 18.6357 17.95 21.4214V32H11.3214V10.6357H17.6857V13.55H17.7786C18.6643 11.8714 20.8286 10.1 24.0571 10.1C30.7714 10.1 32.0071 14.5214 32.0071 20.2643V32H32Z" fill="white"/>
</svg>
